<?xml version="1.0" encoding="utf-8"?>
<!-- Generator: Adobe Illustrator 16.0.0, SVG Export Plug-In . SVG Version: 6.00 Build 0)  -->
<!DOCTYPE svg PUBLIC "-//W3C//DTD SVG 1.1//EN" "http://www.w3.org/Graphics/SVG/1.1/DTD/svg11.dtd">
<svg version="1.1" id="Layer_1" xmlns="http://www.w3.org/2000/svg" xmlns:xlink="http://www.w3.org/1999/xlink" x="0px" y="0px"
	 width="100px" height="100px" viewBox="0 0 100 100" enable-background="new 0 0 100 100" xml:space="preserve">
<g>
	<path fill="#231F20" d="M84.773,53.083c-0.007-5.611-3.528-9.283-9.16-9.592c-0.012,0-0.026-0.002-0.039-0.003
		c0.02-5.595,0.159-11.046-0.074-16.469c-0.136-3.2-0.567-6.517-1.606-9.524C70.097,6.52,58.603-0.261,47.415,1.537
		C35.571,3.441,26.686,13.426,26.438,25.263c-0.13,6.085-0.104,12.179-0.113,18.273c-4.504,0-9.325,2.595-9.325,7.261v40.718
		c0,7.478,6.141,7.568,12.022,7.474c15.38-0.245,30.794-0.072,46.18-0.088c5.785-0.007,9.573,0.092,9.573-9.414
		C84.775,77.349,84.794,65.218,84.773,53.083z M32.439,26.071c0.201-9.883,7.056-17.538,16.443-18.546
		c9.551-1.021,17.896,4.915,20.226,14.386c0.094,0.37,0.237,0.745,0.237,1.119c0.011,6.667,0.012,13.34,0.012,20.189
		c-2.569,0.121-5.751,0.264-6.354,0.264c-10.196,0-20.392,0.118-30.587-0.027C32.428,37.664,32.322,31.867,32.439,26.071z
		 M74.125,92.883c-15.569,0.019-31.131,0.019-46.699,0.007c-3.271-0.003-4.151-0.809-4.163-4.03
		c-0.043-11.746-0.039-23.49-0.004-35.236c0.008-3.163,0.851-4.027,4.062-4.034C35.242,49.569,43,49.584,51,49.584v-0.054
		c8,0,15.377-0.011,23.016,0.004c3.908,0.007,4.896,0.953,4.899,4.915c0.016,11.176,0.06,22.347,0.044,33.518
		C78.953,91.992,78.104,92.88,74.125,92.883z"/>
	<path fill="#231F20" d="M51.371,61.62c-2.514,0-4.547,2.041-4.547,4.549c0,1.692,0.934,3.19,2.304,3.976L48.706,81h5.327
		l-0.422-10.854c1.373-0.785,2.308-2.265,2.308-3.959C55.919,63.681,53.886,61.62,51.371,61.62z"/>
</g>
</svg>
