<?xml version="1.0" encoding="utf-8"?>
<!-- Generator: Adobe Illustrator 16.0.0, SVG Export Plug-In . SVG Version: 6.00 Build 0)  -->
<!DOCTYPE svg PUBLIC "-//W3C//DTD SVG 1.1//EN" "http://www.w3.org/Graphics/SVG/1.1/DTD/svg11.dtd">
<svg version="1.1" id="Layer_1" xmlns="http://www.w3.org/2000/svg" xmlns:xlink="http://www.w3.org/1999/xlink" x="0px" y="0px"
	 width="100px" height="100px" viewBox="0 0 100 100" enable-background="new 0 0 100 100" xml:space="preserve">
<g>
	<path fill="#231F20" d="M77.354,54.057c-0.008-5.492-3.573-9.082-9.219-9.388c-0.117-0.006-0.252-0.017-0.396-0.03
		c1.359-3.122,2.683-6.218,3.859-9.362c1.105-2.943,1.984-6.101,2.178-9.21C74.491,14.719,66.46,4.274,55.414,1.691
		c-11.693-2.73-23.764,2.95-28.549,13.55c-2.479,5.492-4.75,11.07-7.124,16.604c-0.775,1.81-1.043,3.507,1.207,4.487
		c2.39,1.042,3.567-0.352,4.39-2.268c2.261-5.276,4.413-10.597,6.768-15.831C36.102,9.375,45.393,5.031,54.468,7.652
		C63.7,10.322,69.143,18.82,67.65,28.254c-0.058,0.371-0.068,0.765-0.212,1.102c-2.12,5.005-4.104,10.331-6.274,15.427
		c-1.101,0.069-28.947,0.475-40.247,0.475c-9.168,0-10.917,2.34-10.917,8.366v38.049c0,6.493,5.843,7.409,11.742,7.314
		c15.416-0.238,30.719-0.068,46.137-0.084c5.799-0.008,9.512-3.639,9.52-9.218C77.421,77.81,77.375,65.934,77.354,54.057z
		 M71.493,88.202c-0.007,3.942-0.867,4.805-4.851,4.81c-15.604,0.02-31.206,0.02-46.812,0.004c-3.281,0-4.162-0.792-4.174-3.938
		c-0.044-11.498-0.04-23-0.003-34.495c0.007-3.093,1.122-3.938,4.339-3.945C27.937,50.617,65.122,50,65.157,50
		c0.492,0,0.984,0,1.476,0c3.918,0,4.856,1.22,4.86,5.101C71.51,66.039,71.51,77.268,71.493,88.202z"/>
	<path fill="#231F20" d="M43.833,62.415c-2.518,0-4.561,1.992-4.561,4.45c0,1.657,0.938,2.932,2.312,3.699L41.165,81h5.339
		l-0.423-10.436c1.375-0.768,2.312-2.119,2.312-3.778C48.394,64.329,46.353,62.415,43.833,62.415z"/>
</g>
</svg>
