<?xml version="1.0" encoding="utf-8"?>
<!-- Generator: Adobe Illustrator 16.0.0, SVG Export Plug-In . SVG Version: 6.00 Build 0)  -->
<!DOCTYPE svg PUBLIC "-//W3C//DTD SVG 1.1//EN" "http://www.w3.org/Graphics/SVG/1.1/DTD/svg11.dtd">
<svg version="1.1" id="Layer_1" xmlns="http://www.w3.org/2000/svg" xmlns:xlink="http://www.w3.org/1999/xlink" x="0px" y="0px"
	 width="600px" height="600px" viewBox="0 0 600 600" enable-background="new 0 0 600 600" xml:space="preserve">
<g>
	<path d="M306.374,272.889c42.68,0.237,77.296-32.774,77.441-73.852c0.13-41.185-33.965-74.05-76.938-74.157
		c-42.527-0.091-77.098,32.746-77.365,73.51C229.253,239.216,263.747,272.651,306.374,272.889"/>
	<path d="M438.301,374.217c-0.076-7.222-0.636-14.588-2.238-21.609c-4.501-19.668-14.609-36.439-30.329-49.991
		c-16.621-14.292-35.968-22.785-58.287-23.962c-13.407-0.717-26.92-0.145-40.365-0.145v-0.506c-10.273,0-20.498,0.016-30.724,0
		c-16.687-0.012-32.771,2.89-47.449,10.548c-34.669,18.131-52.775,46.455-53.809,84.25c-0.659,24.865-0.093,49.771-0.186,74.646
		c0,2.545,0.661,3.854,3.373,4.545c11.092,2.836,22.076,6.095,33.191,8.795c25.472,6.187,51.312,10.082,77.534,11.778
		c22.85,1.457,45.662,0.966,68.429-1.684c26.59-3.085,52.443-8.451,76.89-19.264c3.004-1.322,4.171-2.767,4.146-5.976
		C438.338,421.824,438.553,398.021,438.301,374.217"/>
	<path d="M300.893,557.954c-142.328,0.028-258.788-116.56-258.68-258.965C42.32,156.454,158.603,40.301,301.177,40.301
		c142.405,0.016,258.681,116.405,258.681,258.964C559.864,441.655,443.483,557.931,300.893,557.954 M593.951,260.226
		c-6.292-48.644-23.87-92.819-52.309-132.747c-23.479-32.954-52.562-59.912-87.016-80.991
		c-27.135-16.611-56.203-28.821-87.384-35.314C352.51,8.115,337.47,6.551,322.57,4.283c-1.204-0.184-2.394-0.567-3.597-0.859
		h-35.889c-7.305,0.943-14.58,1.894-21.87,2.859c-37.844,5.006-73.256,17.102-106.454,35.95
		c-28.134,15.982-52.906,36.112-74.398,60.173c-23.441,26.229-41.641,55.795-54.526,88.618
		C14.786,219.201,8.355,248.382,6.1,278.523c-0.062,0.897-0.514,1.763-0.772,2.652v35.897c0.958,7.281,1.899,14.586,2.859,21.867
		c4.997,37.853,17.1,73.279,35.957,106.479c15.975,28.124,36.104,52.898,60.193,74.384c26.256,23.449,55.797,41.638,88.62,54.522
		c28.177,11.04,57.336,17.484,87.482,19.724c0.897,0.069,1.765,0.505,2.646,0.783h35.889c7.138-0.938,14.265-1.895,21.396-2.821
		c38.187-4.937,73.886-17.163,107.345-36.228c28.271-16.099,53.174-36.34,74.629-60.663c33.259-37.682,56.032-80.999,66.711-130.256
		c3.164-14.541,4.583-29.457,6.82-44.206c0.186-1.202,0.575-2.383,0.859-3.586v-35.897
		C595.814,274.192,594.848,267.208,593.951,260.226"/>
</g>
</svg>
