<?xml version="1.0" encoding="utf-8"?>
<!-- Generator: Adobe Illustrator 16.0.0, SVG Export Plug-In . SVG Version: 6.00 Build 0)  -->
<!DOCTYPE svg PUBLIC "-//W3C//DTD SVG 1.1//EN" "http://www.w3.org/Graphics/SVG/1.1/DTD/svg11.dtd">
<svg version="1.1" id="Layer_1" xmlns="http://www.w3.org/2000/svg" xmlns:xlink="http://www.w3.org/1999/xlink" x="0px" y="0px"
	 width="600px" height="600px" viewBox="0 0 600 600" enable-background="new 0 0 600 600" xml:space="preserve">
<g>
	<path d="M448.323,594.067c30.129-10.964,59.809-23.198,89.598-35.112c11.062-4.383,12.843-11.132,7.531-22.734
		c-23.387-51.511-61.721-85.321-110.916-106.543c-7.623-3.271-13.278-2.762-21.448,1.516c-9.229,4.839-21.889,6.468-31.925,4.185
		c-11.438-2.663-22.62-9.679-32.253-17.24c-51.775-40.735-92.785-92.46-128.833-148.555c-11.39-17.767-20.323-37.579-27.917-57.582
		c-6.833-17.998-6.01-36.406,8.849-51.989c2.671-2.853,3.066-10.427,1.812-14.951c-15.757-58.444-45.53-106.819-69.792-125.463
		c0,0-24.271-18.649-36.635-3.918c-12.38,14.737-30.685,47.149-43.65,82.81c-2.679,7.388-2.838,17.527-0.304,24.904
		c24.704,72.383,60.06,138.705,102.873,200.642C230.06,432.229,318.736,524.338,429.53,591.049
		C434.734,594.227,442.943,596.021,448.323,594.067"/>
</g>
</svg>
