<?xml version="1.0" encoding="utf-8"?>
<!-- Generator: Adobe Illustrator 16.0.0, SVG Export Plug-In . SVG Version: 6.00 Build 0)  -->
<!DOCTYPE svg PUBLIC "-//W3C//DTD SVG 1.1//EN" "http://www.w3.org/Graphics/SVG/1.1/DTD/svg11.dtd">
<svg version="1.1" id="Layer_1" xmlns="http://www.w3.org/2000/svg" xmlns:xlink="http://www.w3.org/1999/xlink" x="0px" y="0px"
	 width="600px" height="600px" viewBox="0 0 600 600" enable-background="new 0 0 600 600" xml:space="preserve">
<path d="M577.406,105.208c23.294-23.311,23.312-61.097,0-84.391c-23.31-23.328-61.097-23.311-84.408,0L299.816,213.965
	L106.685,20.817c-23.311-23.328-61.097-23.311-84.408,0c-23.311,23.293-23.311,61.08,0,84.391l193.148,193.166L22.277,491.521
	c-23.311,23.294-23.311,61.098,0,84.391c11.63,11.647,26.917,17.491,42.196,17.491c15.27,0,30.549-5.844,42.212-17.491
	l193.132-193.148l193.182,193.165c11.63,11.665,26.918,17.483,42.196,17.483c15.277,0,30.531-5.818,42.212-17.483
	c23.294-23.293,23.312-61.097,0-84.391L384.224,298.373L577.406,105.208z"/>
</svg>
