<?xml version="1.0" encoding="utf-8"?>
<!-- Generator: Adobe Illustrator 16.0.0, SVG Export Plug-In . SVG Version: 6.00 Build 0)  -->
<!DOCTYPE svg PUBLIC "-//W3C//DTD SVG 1.1//EN" "http://www.w3.org/Graphics/SVG/1.1/DTD/svg11.dtd">
<svg version="1.1" id="Layer_1" xmlns="http://www.w3.org/2000/svg" xmlns:xlink="http://www.w3.org/1999/xlink" x="0px" y="0px"
	 width="600px" height="600px" viewBox="0 0 600 600" enable-background="new 0 0 600 600" xml:space="preserve">
<g>
	<g>
		<path d="M300.893,557.954c-142.33,0.028-258.789-116.558-258.681-258.965C42.32,156.454,158.603,40.301,301.177,40.301
			c142.405,0.016,258.679,116.405,258.679,258.964C559.864,441.655,443.482,557.931,300.893,557.954 M593.952,260.226
			c-6.294-48.644-23.869-92.819-52.308-132.747c-23.479-32.954-52.562-59.912-87.019-80.991
			c-27.134-16.611-56.201-28.821-87.383-35.314c-14.732-3.059-29.772-4.623-44.674-6.891c-1.204-0.184-2.393-0.567-3.596-0.859
			h-35.889c-7.305,0.943-14.58,1.894-21.869,2.859c-37.843,5.006-73.257,17.102-106.456,35.95
			c-28.132,15.982-52.906,36.112-74.399,60.173c-23.44,26.229-41.637,55.795-54.523,88.618
			C14.785,219.201,8.354,248.382,6.1,278.523c-0.062,0.897-0.514,1.763-0.774,2.652v35.897c0.958,7.281,1.901,14.586,2.859,21.867
			c4.998,37.853,17.102,73.279,35.958,106.479c15.975,28.124,36.104,52.898,60.196,74.384
			c26.253,23.449,55.795,41.638,88.618,54.522c28.177,11.04,57.336,17.484,87.484,19.724c0.897,0.069,1.763,0.505,2.645,0.783
			h35.889c7.138-0.938,14.266-1.895,21.395-2.821c38.188-4.937,73.885-17.163,107.345-36.228
			c28.271-16.099,53.173-36.34,74.629-60.663c33.261-37.682,56.034-80.999,66.711-130.256c3.166-14.541,4.583-29.457,6.822-44.206
			c0.185-1.202,0.575-2.383,0.859-3.586v-35.897C595.815,274.192,594.849,267.208,593.952,260.226"/>
	</g>
	<g>
		<path d="M220.246,167.978c0-8.834,0.219-17.684-0.054-26.507c-0.437-14.824-9.24-23.594-23.359-23.674
			c-14.05-0.08-23.805,8.677-24.195,23.039c-0.506,18.12-0.49,36.269,0,54.393c0.349,13.233,11.973,24.096,24.28,23.87
			c12.598-0.253,22.896-10.97,23.275-24.613C220.449,185.65,220.246,176.8,220.246,167.978 M371.628,167.978
			c0-8.834,0.214-17.684-0.046-26.507c-0.452-14.824-9.244-23.594-23.363-23.674c-14.06-0.08-23.809,8.677-24.216,23.039
			c-0.504,18.12-0.467,36.269,0.008,54.393c0.361,13.233,11.989,24.096,24.284,23.87c12.604-0.253,22.889-10.97,23.287-24.613
			C371.842,185.65,371.628,176.8,371.628,167.978 M382.758,279.994H420.9V165.912h-35.106c0,9.751,0.092,18.52-0.016,27.273
			c-0.309,23.767-15.132,39.859-36.994,40.285c-23.607,0.438-40.786-15.63-41.688-39.331c-0.349-9.205-0.063-18.466-0.063-28.254
			h-70.322c0,8.861,0.112,16.69-0.026,24.544c-0.418,25-16.075,42.565-38.212,43.014c-24.904,0.506-40.626-15.235-41.714-42.071
			c-0.325-8.252-0.038-16.534-0.038-25.33h-34.743V384.71c0.79,1.67-2.012,64.714,74.667,64.714c47.632,0,95.268,0.41,142.904,0.41
			c1.863,0,3.702-1.19,4.775-1.536c-7.451-9.303-15.271-17.447-21.08-26.867c-4.276-6.915-8.829-9.26-16.702-9.164
			c-34.083,0.356-68.187,0.438-102.274,0.038c-28.163-0.33-43.06-15.71-43.083-43.408c-0.027-32.696,0-65.403,0-98.081v-20.164
			h221.572L382.758,279.994L382.758,279.994z M248.011,299.733c0,22.904,0.371,23.275,23.785,23.26
			c23.382,0,23.966-0.609,23.95-24.652c0-22.812-0.294-23.103-23.95-23.103C248.011,275.238,248.011,275.238,248.011,299.733
			 M248.011,362.047c-0.012,24.043,1.153,25.288,23.609,25.301c21.405,0.014,24.1-2.465,24.125-22.215
			c0.054-25.38-0.663-26.178-23.805-26.242C248.992,338.836,248.037,339.753,248.011,362.047 M228.832,363.795
			c0-24.337-0.472-24.878-21.812-24.878c-24.793,0-26.085,1.127-26.111,22.89c-0.028,22.627,2.728,25.541,24.114,25.541
			C227.543,387.361,228.816,386.102,228.832,363.795 M228.805,299.717c0-24.467,0-24.467-23.613-24.479
			c-23.195-0.012-24.257,0.993-24.283,23.049c-0.012,22.996,1.67,24.706,24.306,24.72
			C228.708,323.008,228.79,322.912,228.805,299.717"/>
		<path d="M399.039,441.464c-39.001,0.004-70.896-31.935-70.873-70.946c0.03-39.052,31.888-70.869,70.949-70.869
			c39.017,0.007,70.866,31.891,70.866,70.946C469.981,409.606,438.102,441.456,399.039,441.464 M479.326,359.896
			c-1.733-13.326-6.547-25.426-14.336-36.363c-6.433-9.03-14.396-16.412-23.839-22.191c-7.436-4.549-15.393-7.891-23.938-9.673
			c-4.04-0.84-8.156-1.265-12.242-1.89c-0.329-0.05-0.65-0.149-0.979-0.234h-9.827c-2.009,0.261-4.002,0.522-5.994,0.782
			c-10.371,1.372-20.068,4.688-29.174,9.85c-7.703,4.382-14.488,9.896-20.375,16.488c-6.424,7.187-11.405,15.28-14.931,24.28
			c-3.036,7.719-4.8,15.709-5.412,23.966c-0.017,0.245-0.146,0.483-0.216,0.731v9.83c0.262,1.993,0.521,3.997,0.781,5.986
			c1.373,10.371,4.691,20.075,9.852,29.174c4.376,7.704,9.896,14.491,16.495,20.375c7.189,6.427,15.283,11.41,24.275,14.937
			c7.719,3.025,15.705,4.793,23.962,5.407c0.252,0.021,0.49,0.138,0.735,0.216h9.827c1.955-0.253,3.909-0.522,5.855-0.774
			c10.463-1.351,20.244-4.699,29.419-9.923c7.741-4.411,14.557-9.957,20.437-16.623c9.112-10.317,15.353-22.19,18.273-35.683
			c0.865-3.981,1.258-8.07,1.869-12.106c0.057-0.334,0.162-0.655,0.238-0.985v-9.83C479.831,363.727,479.57,361.814,479.326,359.896
			"/>
		<path d="M389.947,372.706c0-5.036,4.094-9.126,9.123-9.126c5.043,0,9.128,4.09,9.128,9.126c0,5.039-4.085,9.125-9.128,9.125
			C394.041,381.831,389.947,377.745,389.947,372.706z"/>
		<path d="M401.079,375.136c-1.887,1.884-4.493,1.431-6.387-0.459l-41.062-41.053c-1.871-1.897-2.338-4.488-0.445-6.386
			c1.894-1.894,4.499-1.43,6.378,0.461l41.057,41.051C402.503,370.641,402.971,373.238,401.079,375.136z"/>
		<path d="M430.029,347.46l-27.372,27.36c-1.886,1.897-4.492,2.354-6.378,0.465c-1.894-1.887-1.434-4.487,0.452-6.381l27.372-27.369
			c1.888-1.889,4.492-2.348,6.379-0.46C432.383,342.973,431.915,345.57,430.029,347.46z"/>
	</g>
</g>
</svg>
