<?xml version="1.0" encoding="utf-8"?>
<!-- Generator: Adobe Illustrator 16.0.0, SVG Export Plug-In . SVG Version: 6.00 Build 0)  -->
<!DOCTYPE svg PUBLIC "-//W3C//DTD SVG 1.1//EN" "http://www.w3.org/Graphics/SVG/1.1/DTD/svg11.dtd">
<svg version="1.1" id="Layer_1" xmlns="http://www.w3.org/2000/svg" xmlns:xlink="http://www.w3.org/1999/xlink" x="0px" y="0px"
	 width="600px" height="600px" viewBox="0 0 600 600" enable-background="new 0 0 600 600" xml:space="preserve">
<g>
	<path d="M384.433,218.608c47.018,47.017,46.298,123.969-1.619,171.88c-47.921,47.919-124.872,48.646-171.882,1.635
		c-47.016-47.012-46.285-123.988,1.615-171.887C260.464,172.311,337.423,171.592,384.433,218.608 M408.263,121.699l4.37,4.384
		c-19.986-12.621-41.705-21.502-64.179-26.63l4.927-0.058l0.839-88.62l-101.791,0.958l-0.839,88.451
		c-19.49,4.711-38.482,12.205-56.364,22.473L136.849,64.3l-2.649-2.674l-72.65,72.65l2.661,2.674l56.516,56.528
		c-11.801,18.292-20.543,37.959-26.239,58.257l-82.844,0.782L10.685,354.32l80.535-0.775c4.58,21.376,12.489,42.109,23.842,61.367
		l-56.705,56.704l71.301,71.295l56.275-56.282c19.352,11.72,40.211,19.994,61.777,24.814l-0.745,79.146l101.791-0.971l0.75-80.567
		c20.941-5.676,41.214-14.584,60.062-26.724l57.419,57.396l2.648,2.661l72.65-72.648l-2.662-2.661l-59.253-59.254
		c10.583-18.438,18.229-38.048,22.89-58.155l86.27-0.82l0.959-101.804l-88.578,0.845c-5.278-20.083-13.58-39.485-24.951-57.486
		l2.604,2.598l63.266-63.251l-71.307-71.301L408.263,121.699z"/>
</g>
</svg>
