<?xml version="1.0" encoding="utf-8"?>
<!-- Generator: Adobe Illustrator 16.0.0, SVG Export Plug-In . SVG Version: 6.00 Build 0)  -->
<!DOCTYPE svg PUBLIC "-//W3C//DTD SVG 1.1//EN" "http://www.w3.org/Graphics/SVG/1.1/DTD/svg11.dtd">
<svg version="1.1" id="Layer_1" xmlns="http://www.w3.org/2000/svg" xmlns:xlink="http://www.w3.org/1999/xlink" x="0px" y="0px"
	 width="600px" height="600px" viewBox="0 0 600 600" enable-background="new 0 0 600 600" xml:space="preserve">
<path d="M299.027,300.352c-78.365,0-141.962-65.961-141.962-147.244c0-81.283,63.597-147.249,141.962-147.249
	s141.961,65.966,141.961,147.249C440.988,234.39,377.393,300.352,299.027,300.352 M460.611,594.832H137.434
	c-59.143,0-98.669-37.158-98.669-99.305c0-86.663,19.598-219.715,127.923-219.715c12.524,0,58.412,53.26,132.339,53.26
	c73.918,0,119.814-53.26,132.338-53.26c108.315,0,127.932,133.052,127.932,219.715C559.297,557.674,519.762,594.832,460.611,594.832
	"/>
</svg>
