<?xml version="1.0" encoding="utf-8"?>
<!-- Generator: Adobe Illustrator 16.0.0, SVG Export Plug-In . SVG Version: 6.00 Build 0)  -->
<!DOCTYPE svg PUBLIC "-//W3C//DTD SVG 1.1//EN" "http://www.w3.org/Graphics/SVG/1.1/DTD/svg11.dtd">
<svg version="1.1" id="Layer_1" xmlns="http://www.w3.org/2000/svg" xmlns:xlink="http://www.w3.org/1999/xlink" x="0px" y="0px"
	 width="600px" height="600px" viewBox="0 0 600 600" enable-background="new 0 0 600 600" xml:space="preserve">
<path d="M591.964,350.576c-8.125-25.401-15.944-50.91-24.85-76.049c-1.589-4.482-7.04-8.809-11.833-10.455
	c-82.229-29.039-167.953-39.907-254.783-38.037c-87.401-1.87-172.648,8.998-254.878,38.037c-4.793,1.646-10.292,5.973-11.881,10.455
	c-8.905,25.139-16.749,50.647-24.874,76.049c-3.018,9.428,0.364,14.141,10.62,16.855c45.418,12.236,87.37,5.545,127.014-14.805
	c6.127-3.178,8.789-7.07,10.363-14.566c1.783-8.475,7.427-17.47,14.202-22.693c7.761-5.938,18.174-9.38,28.113-11.575
	c33.185-7.232,66.887-9.575,100.823-8.757v0.021c0.166-0.004,0.332-0.006,0.498-0.01c0.167,0.004,0.334,0.006,0.502,0.01v-0.021
	c33.671-0.818,67.544,1.524,100.727,8.757c9.938,2.195,20.256,5.638,28.016,11.575c6.775,5.224,12.421,14.219,14.203,22.693
	c1.575,7.496,4.239,11.389,10.366,14.566c39.645,20.35,81.603,27.041,127.021,14.805
	C591.588,364.717,594.981,360.004,591.964,350.576z"/>
</svg>
