<?xml version="1.0" encoding="utf-8"?>
<!-- Generator: Adobe Illustrator 16.0.0, SVG Export Plug-In . SVG Version: 6.00 Build 0)  -->
<!DOCTYPE svg PUBLIC "-//W3C//DTD SVG 1.1//EN" "http://www.w3.org/Graphics/SVG/1.1/DTD/svg11.dtd">
<svg version="1.1" id="Layer_1" xmlns="http://www.w3.org/2000/svg" xmlns:xlink="http://www.w3.org/1999/xlink" x="0px" y="0px"
	 width="600px" height="600px" viewBox="0 0 600 600" enable-background="new 0 0 600 600" xml:space="preserve">
<g>
	<path d="M386.206,592.21c28.071-10.222,55.72-21.602,83.464-32.693c10.31-4.106,11.963-10.398,7.02-21.195
		c-21.785-47.997-57.492-79.493-103.34-99.269c-7.1-3.034-12.37-2.555-19.957,1.423c-8.602,4.496-20.413,6.028-29.757,3.889
		c-10.669-2.467-21.075-9.023-30.043-16.044c-48.251-37.958-86.458-86.154-120.032-138.416
		c-10.613-16.546-18.95-35.019-26.018-53.635c-6.365-16.786-5.59-33.925,8.242-48.427c2.5-2.684,2.867-9.735,1.693-13.944
		c-14.678-54.473-42.406-99.523-87.64-134.262c-23.032,27.472-40.106,57.651-52.181,90.866c-2.499,6.892-2.651,16.332-0.288,23.208
		c23.017,67.435,55.967,129.215,95.85,186.922c69.63,100.81,152.248,186.612,255.466,248.76
		C373.541,592.355,381.185,594.031,386.206,592.21"/>
	<path d="M272.293,5.616c-2.028-0.319-4.033-0.703-6.062-0.958c-17.154-2.444-27.999,3.658-29.764,16.739
		c-1.797,13.225,6.9,23.199,23.567,26.745c8.01,1.726,16.18,2.644,24.126,4.688c145.58,37.439,252.888,174.856,254.333,325.027
		c0.151,14.862-2.867,29.356-2.301,44.179c0.479,12.754,9.104,21.858,20.437,22.784c10.862,0.942,19.791-5.99,22.081-18.009
		c1.423-7.595,2.252-15.389,2.557-23.143c3.905-99.108-24.749-188.337-89.652-265.898C433.221,68.019,359.437,24.791,272.293,5.616"
		/>
	<path d="M278.187,88.855c-4.032-0.663-8.058-1.654-12.114-1.877c-11.525-0.607-20.221,5.726-22.458,15.996
		c-2.212,10.142,3.258,20.34,13.991,24.893c4.887,2.092,10.159,3.346,15.374,4.408c105.512,21.1,184.925,114.617,188.671,222.741
		c0.424,12.681-1.246,25.355-1.149,38.093c0.128,14.047,7.858,23.151,19.74,24.701c11.605,1.549,20.493-6.029,23.032-19.734
		c2.254-12.098,2.332-24.413,1.957-36.768C500.679,218.949,401.269,114.322,278.187,88.855"/>
	<path d="M311.21,176.079c-13.409-5.462-27.105-10.007-41.536-10.614c-10.573-0.463-18.153,4.529-20.772,14.782
		c-2.803,10.854,1.805,19.487,11.58,24.957c4.248,2.356,9.152,3.705,13.88,4.888c69.064,17.058,113.075,75.212,110.207,145.603
		c-0.206,5.27-0.238,10.812,1.008,15.924c2.508,10.317,9.455,16.835,20.053,17.394c10.582,0.511,17.49-5.151,20.389-15.35
		c0.991-3.498,1.335-7.204,1.565-8.657C436.24,287.581,385.521,206.362,311.21,176.079"/>
</g>
</svg>
