<?xml version="1.0" encoding="utf-8"?>
<!-- Generator: Adobe Illustrator 16.0.0, SVG Export Plug-In . SVG Version: 6.00 Build 0)  -->
<!DOCTYPE svg PUBLIC "-//W3C//DTD SVG 1.1//EN" "http://www.w3.org/Graphics/SVG/1.1/DTD/svg11.dtd">
<svg version="1.1" id="Layer_1" xmlns="http://www.w3.org/2000/svg" xmlns:xlink="http://www.w3.org/1999/xlink" x="0px" y="0px"
	 width="600px" height="600px" viewBox="0 0 600 600" enable-background="new 0 0 600 600" xml:space="preserve">
<g>
	<path d="M301.079,557.954C158.75,557.982,42.292,441.396,42.399,298.989C42.507,156.454,158.788,40.301,301.361,40.301
		c142.404,0.016,258.681,116.405,258.681,258.964C560.051,441.655,443.668,557.931,301.079,557.954 M594.139,260.226
		c-6.294-48.644-23.87-92.819-52.309-132.747c-23.479-32.954-52.562-59.912-87.018-80.991
		c-27.136-16.611-56.199-28.821-87.384-35.314c-14.731-3.059-29.771-4.623-44.673-6.891c-1.204-0.184-2.392-0.567-3.597-0.859
		h-35.888c-7.305,0.943-14.58,1.894-21.87,2.859c-37.842,5.006-73.257,17.102-106.454,35.95
		c-28.131,15.982-52.906,36.112-74.399,60.173c-23.44,26.229-41.638,55.795-54.523,88.618
		c-11.054,28.177-17.484,57.358-19.737,87.499c-0.062,0.897-0.513,1.763-0.774,2.652v35.897c0.958,7.281,1.9,14.586,2.859,21.867
		c4.997,37.853,17.101,73.279,35.957,106.479c15.974,28.124,36.103,52.898,60.196,74.384c26.253,23.449,55.795,41.638,88.617,54.522
		c28.177,11.04,57.338,17.484,87.485,19.724c0.896,0.069,1.762,0.505,2.644,0.783h35.888c7.137-0.938,14.268-1.895,21.395-2.821
		c38.19-4.937,73.888-17.163,107.346-36.228c28.271-16.099,53.174-36.34,74.629-60.663c33.259-37.682,56.033-80.999,66.712-130.256
		c3.166-14.541,4.582-29.457,6.821-44.206c0.185-1.202,0.574-2.383,0.856-3.586v-35.897
		C595.999,274.192,595.035,267.208,594.139,260.226"/>
	<path d="M267.916,306.977c0-18.394,14.908-33.302,33.301-33.302c18.396,0,33.299,14.909,33.299,33.302
		c0,18.397-14.901,33.299-33.299,33.299C282.824,340.273,267.916,325.374,267.916,306.977z"/>
	<path d="M308.521,315.834c-6.867,6.887-16.409,5.227-23.292-1.675L135.364,164.31c-6.864-6.903-8.545-16.385-1.638-23.287
		c6.888-6.926,16.403-5.228,23.291,1.674l149.845,149.827C313.748,299.43,315.442,308.932,308.521,315.834z"/>
	<path d="M414.202,214.832l-99.89,99.871c-6.903,6.925-16.403,8.585-23.312,1.697c-6.884-6.906-5.227-16.385,1.681-23.311
		l99.89-99.891c6.904-6.906,16.403-8.562,23.29-1.679C422.787,198.427,421.092,207.926,414.202,214.832z"/>
</g>
</svg>
