<?xml version="1.0" encoding="utf-8"?>
<!-- Generator: Adobe Illustrator 16.0.0, SVG Export Plug-In . SVG Version: 6.00 Build 0)  -->
<!DOCTYPE svg PUBLIC "-//W3C//DTD SVG 1.1//EN" "http://www.w3.org/Graphics/SVG/1.1/DTD/svg11.dtd">
<svg version="1.1" id="Layer_1" xmlns="http://www.w3.org/2000/svg" xmlns:xlink="http://www.w3.org/1999/xlink" x="0px" y="0px"
	 width="600px" height="600px" viewBox="0 0 600 600" enable-background="new 0 0 600 600" xml:space="preserve">
<g>
	<path d="M130.424,94H401.19c8.544,0,15.471-6.455,15.471-15s-6.927-15-15.471-15H130.424c-8.545,0-15.473,6.455-15.473,15
		S121.879,94,130.424,94z"/>
	<path d="M416.66,148c0-8.545-6.927-16-15.471-16H130.424c-8.545,0-15.473,7.455-15.473,16c0,8.544,6.928,16,15.473,16H401.19
		C409.733,164,416.66,156.544,416.66,148z"/>
	<path d="M378.768,316.209c-35.591-35.591-93.28-35.591-128.869,0c-35.592,35.582-35.592,93.278,0,128.87
		c35.589,35.582,93.285,35.582,128.869,0C414.357,409.487,414.357,351.791,378.768,316.209z"/>
	<path d="M548.057,172.924c-12.556-1.048-40.057,0.743-39.785-17.965c0.672-46.452-5.318-49.47-50.967-57.031
		c0-16.866-0.028-34.088-0.028-51.298c0-33.026,0-32.86-32.229-32.86c-98.205,0-221.282-0.117-319.464-0.117
		c-34.465,0-35.363,0.2-35.363,33.725c0,8.061-0.46,43.41-0.46,51.479C67.613,97.013,15,86.059,15,162.475v394.522
		c0,30.943,28.104,37.402,48.516,37.351c156.032-0.537,272.27-0.271,428.291-0.453c35.426-0.046,42.328-6.302,49.975-41.067
		c1.721-7.821,3.454-15.642,5.179-23.461l41.212-325.593C588.171,175.667,562.695,174.146,548.057,172.924z M69.652,545.702
		c0,20.964-18.735,20.48-18.735,0.748l-0.356-393.248c0-24.447,19.5-23.458,19.5,1.178c0,91.586,0.106,185.884,0.106,277.485
		C70.167,469.805,69.652,507.761,69.652,545.702z M154.916,249.512c-20.19,97.099-20.19,97.099-54.646,283.309
		C97.776,546.294,84,558.334,84,530.333V32h355.975c0,46-0.506,87.926-0.506,132.06c0,26.152-0.803,43.917-47.996,43.917
		c-54.538,0-132.284-0.14-186.824,0.159C170.07,208.332,162.011,215.389,154.916,249.512z M454.534,520.831
		c-5.771,5.771-15.141,5.771-20.911,0l-51.268-51.273c-43.938,33.688-107.053,30.536-147.258-9.679
		c-43.773-43.765-43.767-114.72,0-158.479c43.758-43.763,114.704-43.763,158.469,0c40.208,40.207,43.371,103.32,9.687,147.26
		l51.281,51.274C460.291,505.706,460.291,515.067,454.534,520.831z"/>
</g>
</svg>
