<?xml version="1.0" encoding="utf-8"?>
<!-- Generator: Adobe Illustrator 16.0.0, SVG Export Plug-In . SVG Version: 6.00 Build 0)  -->
<!DOCTYPE svg PUBLIC "-//W3C//DTD SVG 1.1//EN" "http://www.w3.org/Graphics/SVG/1.1/DTD/svg11.dtd">
<svg version="1.1" id="Layer_1" xmlns="http://www.w3.org/2000/svg" xmlns:xlink="http://www.w3.org/1999/xlink" x="0px" y="0px"
	 width="600px" height="600px" viewBox="0 0 600 600" enable-background="new 0 0 600 600" xml:space="preserve">
<g>
	<path d="M588.489,517.613c-30.075-52.265-74.162-84.223-128.546-101.711c-8.424-2.675-14.373-1.558-22.595,3.82
		c-9.285,6.064-22.567,9.109-33.437,7.701c-12.419-1.654-25.807-8.819-36.816-15.843c-36.623-23.526-66.072-49.553-99.326-84.283
		c-27.936-26.466-59.868-62.218-83.377-98.851c-7.023-10.992-13.281-23.271-14.927-35.681c-1.408-10.878,1.628-24.046,7.693-33.349
		c5.36-8.22,6.478-14.118,3.802-22.55C163.481,82.5,131.505,38.414,79.259,8.348c-11.768-6.838-19.108-5.615-24.935,5.668
		C38.685,44.39,22.639,74.605,7.94,105.463c-2.631,5.51-1.61,14.373,1.232,20.2C57.387,226.511,125.239,314.06,205.632,391.064
		c77.524,80.913,164.641,148.332,265.488,196.547c5.836,2.844,14.734,3.908,20.235,1.285c30.867-14.717,61.101-30.727,91.474-46.385
		C594.131,536.703,595.311,529.363,588.489,517.613z"/>
	<path d="M379.734,70.663c0,0,9.136,8.995,0,18.272l-49.174,49.931c0,0-9.127,9.286,0.018,18.281l104.853,103.285
		c0,0,9.127,9.031,18.272-0.254l49.199-49.922c0,0,9.127-9.285,18.281-0.255l51.164,50.125c0,0,9.145,8.995,7.895-3.828
		L574.67,28.432c0,0-1.24-12.85-14.107-13.906l-228.269-1.972c0,0-12.867-1.047-3.723,7.966L379.734,70.663z"/>
</g>
</svg>
