<?xml version="1.0" encoding="utf-8"?>
<!-- Generator: Adobe Illustrator 16.0.0, SVG Export Plug-In . SVG Version: 6.00 Build 0)  -->
<!DOCTYPE svg PUBLIC "-//W3C//DTD SVG 1.1//EN" "http://www.w3.org/Graphics/SVG/1.1/DTD/svg11.dtd">
<svg version="1.1" id="Layer_1" xmlns="http://www.w3.org/2000/svg" xmlns:xlink="http://www.w3.org/1999/xlink" x="0px" y="0px"
	 width="600px" height="600px" viewBox="0 0 600 600" enable-background="new 0 0 600 600" xml:space="preserve">
<g>
	<path d="M421.885,40.694v512.319c0,21.277,30.559,38.535,68.253,38.535c37.715,0,68.286-17.258,68.286-38.535V40.694
		c0-21.278-30.571-38.537-68.286-38.537C452.443,2.157,421.885,19.417,421.885,40.694"/>
	<path d="M42.262,40.694v512.319c0,21.277,30.559,38.535,68.261,38.535c37.714,0,68.273-17.258,68.273-38.535V40.694
		c0-21.278-30.559-38.537-68.273-38.537C72.821,2.157,42.262,19.417,42.262,40.694"/>
</g>
</svg>
