<?xml version="1.0" encoding="utf-8"?>
<!-- Generator: Adobe Illustrator 16.0.0, SVG Export Plug-In . SVG Version: 6.00 Build 0)  -->
<!DOCTYPE svg PUBLIC "-//W3C//DTD SVG 1.1//EN" "http://www.w3.org/Graphics/SVG/1.1/DTD/svg11.dtd">
<svg version="1.1" id="Layer_1" xmlns="http://www.w3.org/2000/svg" xmlns:xlink="http://www.w3.org/1999/xlink" x="0px" y="0px"
	 width="600px" height="600px" viewBox="0 0 600 600" enable-background="new 0 0 600 600" xml:space="preserve">
<path d="M52.872,14.675c-15.731,30.546-31.867,60.937-46.65,91.972c-2.646,5.541-1.619,14.454,1.241,20.313
	c48.49,101.426,116.73,189.475,197.584,266.923c77.967,81.373,165.583,149.181,267.008,197.672
	c5.87,2.857,14.818,3.928,20.352,1.292c31.044-14.8,61.451-30.902,91.998-46.649c11.364-5.844,12.551-13.225,5.692-25.043
	c-30.249-52.563-74.586-84.704-129.284-102.292c-8.471-2.692-14.454-1.567-22.722,3.84c-9.34,6.102-22.698,9.163-33.628,7.747
	c-12.49-1.664-25.955-8.87-37.028-15.933c-36.833-23.663-67.146-49.838-100.589-84.769l0.154-0.018c0,0.01,0,0.01,0,0.018
	c0-0.008,0-0.008,0-0.018l-0.154,0.018c-28.095-26.616-59.863-62.575-83.508-99.414c-7.063-11.057-13.183-23.405-14.838-35.887
	c-1.417-10.94,1.726-24.183,7.825-33.538c5.39-8.27,6.555-14.199,3.865-22.681C162.609,83.551,130.472,39.211,77.929,8.975
	C66.092,2.097,58.731,3.326,52.872,14.675z"/>
<path d="M560.507,277.854c0,0,9.197,9.05,7.942-3.848l-5.605-229.169c0,0-1.247-12.924-14.188-13.986l-229.574-1.982
	c0,0-12.943-1.053-3.746,8.011l51.455,50.429c0,0,9.189,9.049,0,18.376l-49.455,50.218c0,0-9.179,9.338,0.018,18.385
	l105.452,103.877c0,0,9.181,9.083,18.377-0.256l49.483-50.208c0,0,9.178-9.339,18.385-0.257L560.507,277.854z"/>
<path d="M407.071,293.156L301.124,188.429c0,0-6.566-6.472-14.176-2.889l-15.971,16.157c0,0-9.253,9.375-0.008,18.493
	l105.945,104.733c0,0,6.568,6.479,14.184,2.872l15.956-16.138C407.055,311.657,416.312,302.275,407.071,293.156z"/>
</svg>
