<?xml version="1.0" encoding="utf-8"?>
<!-- Generator: Adobe Illustrator 16.0.0, SVG Export Plug-In . SVG Version: 6.00 Build 0)  -->
<!DOCTYPE svg PUBLIC "-//W3C//DTD SVG 1.1//EN" "http://www.w3.org/Graphics/SVG/1.1/DTD/svg11.dtd">
<svg version="1.1" id="Layer_1" xmlns="http://www.w3.org/2000/svg" xmlns:xlink="http://www.w3.org/1999/xlink" x="0px" y="0px"
	 width="600px" height="600px" viewBox="0 0 600 600" enable-background="new 0 0 600 600" xml:space="preserve">
<path d="M584.363,536.349L466.664,418.666c77.324-100.847,70.068-245.7-22.22-337.98c-100.449-100.448-263.283-100.448-363.722,0
	c-100.438,100.429-100.447,263.282,0,363.729c92.298,92.298,237.15,99.529,337.98,22.212L536.386,584.31
	c13.247,13.247,34.731,13.247,47.978,0C597.595,571.08,597.595,549.596,584.363,536.349z M410.475,410.447
	c-81.668,81.668-214.098,81.668-295.775,0c-81.678-81.687-81.678-214.108,0-295.777c81.677-81.686,214.098-81.686,295.775,0
	C492.154,196.339,492.154,328.761,410.475,410.447z"/>
</svg>
